<?xml version="1.0" encoding="utf-8"?>
<!-- Generator: Adobe Illustrator 16.0.0, SVG Export Plug-In . SVG Version: 6.00 Build 0)  -->
<!DOCTYPE svg PUBLIC "-//W3C//DTD SVG 1.1//EN" "http://www.w3.org/Graphics/SVG/1.1/DTD/svg11.dtd">
<svg version="1.1" id="Layer_1" xmlns="http://www.w3.org/2000/svg" xmlns:xlink="http://www.w3.org/1999/xlink" x="0px" y="0px"
	 width="85px" height="40px" viewBox="0 0 85 40" enable-background="new 0 0 85 40" xml:space="preserve">
<path opacity="0.65" fill="#F9A02B" d="M5,40c2.75,0,5-2.25,5-5l0-30c0-2.75-2.25-5-5-5l0,0C2.25,0,0,2.25,0,5l0,30
	C0,37.75,2.25,40,5,40L5,40z"/>
<path opacity="0.8" fill="#F9A02B" d="M20,40c2.75,0,5-2.25,5-5l0-15c0-2.75-2.25-5-5-5l0,0c-2.75,0-5,2.25-5,5l0,15
	C15,37.75,17.25,40,20,40L20,40z"/>
<circle opacity="0.8" fill="#F9A02B" cx="20" cy="5" r="5"/>
<path opacity="0.87" fill="#F9A02B" d="M35,0c-2.75,0-5,2.25-5,5v30c0,2.75,2.25,5,5,5l0,0c2.75,0,5-2.25,5-5V5
	C40,2.25,37.75,0,35,0L35,0z"/>
<path fill="#F9A02B" d="M80,0H50c-2.75,0-5,2.25-5,5v30c0,2.75,2.25,5,5,5h30c2.75,0,5-2.25,5-5V5C85,2.25,82.75,0,80,0z
	 M61.048,28.027c-0.525,2.938-1.26,4.828-2.378,6.087c-1.119,1.259-2.903,1.819-4.688,1.819c-0.77,0-1.609-0.07-2.414-0.28
	l0.596-3.813c0.35,0.071,0.664,0.105,1.119,0.105c1.154,0,2.133-0.595,2.693-3.673l3.148-16.754h5.035L61.048,28.027z M62.132,9.384
	c-1.433,0-2.449-0.944-2.449-2.448c0-1.714,1.329-2.868,2.903-2.868c1.471,0,2.52,0.979,2.52,2.483
	C65.105,8.335,63.742,9.384,62.132,9.384z M73.674,18.269c1.854,0.944,3.813,2.309,3.813,4.688c0,3.917-3.322,6.017-7.836,6.017
	c-2.169,0-4.232-0.56-5.245-1.329l1.224-3.533c0.979,0.489,2.834,1.189,4.478,1.189c1.435,0,2.169-0.7,2.169-1.539
	c0-0.84-0.56-1.435-2.135-2.204c-1.992-0.979-3.638-2.413-3.638-4.547c0-3.533,3.113-5.877,7.521-5.877
	c1.994,0,3.567,0.386,4.407,0.875l-1.189,3.567c-0.734-0.35-1.924-0.77-3.429-0.77c-1.329,0-2.238,0.595-2.238,1.504
	C71.575,17.01,72.275,17.604,73.674,18.269z"/>
</svg>
